<svg width="154" height="154" viewBox="0 0 154 154" fill="none" xmlns="http://www.w3.org/2000/svg">
<g clip-path="url(#clip0_4_70)">
<path d="M40.8036 50.1014L51.0318 46.97C51.8377 46.7236 52.6844 46.6382 53.5234 46.719C54.3623 46.7997 55.1772 47.0449 55.9214 47.4405C56.6656 47.8362 57.3246 48.3745 57.8607 49.0248C58.3969 49.6751 58.7997 50.4247 59.0462 51.2307C59.2926 52.0367 59.378 52.8833 59.2972 53.7223C59.2165 54.5613 58.9713 55.3761 58.5757 56.1203C58.18 56.8645 57.6417 57.5235 56.9914 58.0597C56.341 58.5958 55.5915 58.9986 54.7855 59.2451L30.2417 66.7526C29.4353 66.9991 28.5883 67.0843 27.7489 67.0033C26.9096 66.9222 26.0944 66.6765 25.3501 66.2802C24.6058 65.8839 23.9469 65.3448 23.411 64.6937C22.8752 64.0426 22.473 63.2922 22.2273 62.4855L14.7198 37.9418C14.4734 37.1358 14.3881 36.2891 14.4688 35.4502C14.5495 34.6112 14.7947 33.7964 15.1903 33.0522C15.586 32.3079 16.1243 31.649 16.7746 31.1128C17.425 30.5766 18.1745 30.1738 18.9805 29.9274C20.6083 29.4296 22.3671 29.5988 23.8701 30.3979C25.3731 31.1969 26.4971 32.5602 26.9949 34.188L29.8183 43.4344C45.2696 19.635 75.922 9.40044 103.135 20.5526C111.273 23.8884 118.582 28.9671 124.546 35.4313C130.51 41.8955 134.985 49.5883 137.657 57.9682C137.931 58.7754 138.041 59.6291 137.981 60.4795C137.921 61.3298 137.693 62.1597 137.309 62.9207C136.925 63.6817 136.393 64.3585 135.744 64.9117C135.096 65.4648 134.343 65.8832 133.531 66.1424C132.719 66.4016 131.864 66.4964 131.014 66.4212C130.165 66.346 129.34 66.1025 128.586 65.7047C127.832 65.3069 127.165 64.7629 126.623 64.1044C126.082 63.4459 125.677 62.6862 125.433 61.8695C122.722 53.357 117.659 45.7848 110.828 40.0272C103.997 34.2696 95.6768 30.5615 86.8282 29.3309C77.9796 28.1004 68.9634 29.3976 60.8207 33.0729C52.6779 36.7481 45.7343 42.6515 40.8036 50.1014ZM119.902 102.686L108.512 105.529C107.688 105.755 106.826 105.814 105.978 105.702C105.13 105.591 104.313 105.311 103.575 104.879C102.837 104.447 102.193 103.872 101.68 103.188C101.167 102.503 100.796 101.723 100.589 100.894C100.382 100.064 100.343 99.2011 100.475 98.3561C100.606 97.5111 100.904 96.7008 101.353 95.9729C101.802 95.2449 102.392 94.614 103.088 94.1173C103.784 93.6205 104.572 93.2679 105.407 93.0802L128.782 87.2474C130 86.668 131.37 86.4883 132.697 86.7341C133.974 86.9022 135.172 87.4512 136.133 88.3096C137.095 89.1679 137.775 90.2959 138.087 91.5466L144.298 116.443C144.666 118.078 144.38 119.793 143.5 121.219C142.62 122.646 141.217 123.672 139.591 124.078C137.965 124.484 136.244 124.237 134.798 123.39C133.351 122.544 132.293 121.165 131.85 119.549L129.732 111.066C123.554 119.957 115.092 127.017 105.238 131.502C95.3847 135.987 84.5036 137.732 73.7414 136.552C62.9793 135.373 52.7345 131.312 44.0864 124.799C35.4383 118.285 28.7069 109.56 24.6015 99.5418L22.9332 95.4736C22.6138 94.6937 22.4512 93.8586 22.4546 93.0159C22.458 92.1732 22.6273 91.3394 22.9529 90.5621C23.2786 89.7848 23.7541 89.0793 24.3524 88.4858C24.9507 87.8923 25.66 87.4224 26.4399 87.1031C28.0149 86.4581 29.7816 86.4652 31.3514 87.1228C32.1287 87.4485 32.8342 87.924 33.4277 88.5223C34.0212 89.1206 34.4911 89.8299 34.8104 90.6098L36.4787 94.6715C39.7496 102.653 45.138 109.589 52.0624 114.732C58.9867 119.875 67.1841 123.03 75.77 123.855C84.3558 124.681 93.0041 123.146 100.782 119.416C108.559 115.687 115.17 109.898 119.902 102.686Z" fill="#EEEEEE"/>
<path d="M92.9004 69.4463C92.8021 69.2214 92.6646 69.0157 92.4942 68.8391L80.0594 56.4043C79.8827 56.2339 79.6771 56.0963 79.4522 55.9981C79.39 55.9691 79.3237 55.9525 79.2574 55.9297C79.084 55.8707 78.9034 55.8351 78.7206 55.824C78.6771 55.8199 78.6377 55.7971 78.5942 55.7971H64.0869C61.801 55.7971 59.942 57.6561 59.942 59.942V93.1014C59.942 95.3873 61.801 97.2463 64.0869 97.2463H88.9565C91.2424 97.2463 93.1014 95.3873 93.1014 93.1014V70.3043C93.1014 70.2608 93.0786 70.2214 93.0745 70.1758C93.0644 69.9928 93.0288 69.8122 92.9688 69.639C92.9481 69.5727 92.9294 69.5085 92.9004 69.4463ZM86.026 68.2318H80.6667V62.8724L86.026 68.2318ZM64.0869 93.1014V59.942H76.5217V70.3043C76.5217 70.854 76.7401 71.3811 77.1287 71.7698C77.5174 72.1584 78.0445 72.3768 78.5942 72.3768H88.9565L88.9607 93.1014H64.0869Z" fill="#EEEEEE"/>
<path d="M68.2319 76.5217H84.8116V80.6667H68.2319V76.5217ZM68.2319 84.8116H84.8116V88.9565H68.2319V84.8116ZM68.2319 68.2319H72.3768V72.3768H68.2319V68.2319Z" fill="#EEEEEE"/>
</g>
<defs>
<clipPath id="clip0_4_70">
<rect width="154" height="154" fill="white"/>
</clipPath>
</defs>
</svg>
