<svg width="154" height="154" viewBox="0 0 154 154" fill="none" xmlns="http://www.w3.org/2000/svg">
<g clip-path="url(#clip0_4_63)">
<path d="M40.8036 50.1014L51.0318 46.97C51.8377 46.7236 52.6844 46.6382 53.5234 46.719C54.3623 46.7997 55.1772 47.0449 55.9214 47.4405C56.6656 47.8362 57.3246 48.3745 57.8607 49.0248C58.3969 49.6751 58.7997 50.4247 59.0462 51.2307C59.2926 52.0367 59.378 52.8833 59.2972 53.7223C59.2165 54.5613 58.9713 55.3761 58.5757 56.1203C58.18 56.8645 57.6417 57.5235 56.9914 58.0597C56.341 58.5958 55.5915 58.9986 54.7855 59.2451L30.2417 66.7526C29.4353 66.9991 28.5883 67.0843 27.7489 67.0033C26.9096 66.9222 26.0944 66.6765 25.3501 66.2802C24.6058 65.8839 23.9469 65.3448 23.411 64.6937C22.8752 64.0426 22.473 63.2922 22.2273 62.4855L14.7198 37.9418C14.4734 37.1358 14.3881 36.2891 14.4688 35.4502C14.5495 34.6112 14.7947 33.7964 15.1903 33.0522C15.586 32.3079 16.1243 31.649 16.7746 31.1128C17.425 30.5766 18.1745 30.1738 18.9805 29.9274C20.6083 29.4296 22.3671 29.5988 23.8701 30.3979C25.3731 31.1969 26.4971 32.5602 26.9949 34.188L29.8183 43.4344C45.2696 19.635 75.922 9.40044 103.135 20.5526C111.273 23.8884 118.582 28.9671 124.546 35.4313C130.51 41.8955 134.985 49.5883 137.657 57.9682C137.931 58.7754 138.041 59.6291 137.981 60.4795C137.921 61.3298 137.693 62.1597 137.309 62.9207C136.925 63.6817 136.393 64.3585 135.744 64.9117C135.096 65.4648 134.343 65.8832 133.531 66.1424C132.719 66.4016 131.864 66.4964 131.014 66.4212C130.165 66.346 129.34 66.1025 128.586 65.7047C127.832 65.3069 127.165 64.7629 126.623 64.1044C126.082 63.4459 125.677 62.6862 125.433 61.8695C122.722 53.357 117.659 45.7848 110.828 40.0272C103.997 34.2696 95.6768 30.5615 86.8282 29.3309C77.9796 28.1004 68.9634 29.3976 60.8207 33.0729C52.6779 36.7481 45.7343 42.6515 40.8036 50.1014ZM119.902 102.686L108.512 105.529C107.688 105.755 106.826 105.814 105.978 105.702C105.13 105.591 104.313 105.311 103.575 104.879C102.837 104.447 102.193 103.872 101.68 103.188C101.167 102.503 100.796 101.723 100.589 100.894C100.382 100.064 100.343 99.2011 100.475 98.3561C100.606 97.5111 100.904 96.7008 101.353 95.9729C101.802 95.2449 102.392 94.614 103.088 94.1173C103.784 93.6205 104.572 93.2679 105.407 93.0802L128.782 87.2474C130 86.668 131.37 86.4883 132.697 86.7341C133.974 86.9022 135.172 87.4512 136.133 88.3096C137.095 89.1679 137.775 90.2959 138.087 91.5466L144.298 116.443C144.666 118.078 144.38 119.793 143.5 121.219C142.62 122.646 141.217 123.672 139.591 124.078C137.965 124.484 136.244 124.237 134.798 123.39C133.351 122.544 132.293 121.165 131.85 119.549L129.732 111.066C123.554 119.957 115.092 127.017 105.238 131.502C95.3847 135.987 84.5036 137.732 73.7414 136.552C62.9793 135.373 52.7345 131.312 44.0864 124.799C35.4383 118.285 28.7069 109.56 24.6015 99.5418L22.9332 95.4736C22.6138 94.6937 22.4512 93.8586 22.4546 93.0159C22.458 92.1732 22.6273 91.3394 22.9529 90.5621C23.2786 89.7848 23.7541 89.0793 24.3524 88.4858C24.9507 87.8923 25.66 87.4224 26.4399 87.1031C28.0149 86.4581 29.7816 86.4652 31.3514 87.1228C32.1287 87.4485 32.8342 87.924 33.4277 88.5223C34.0212 89.1206 34.4911 89.8299 34.8104 90.6098L36.4787 94.6715C39.7496 102.653 45.138 109.589 52.0624 114.732C58.9867 119.875 67.1841 123.03 75.77 123.855C84.3558 124.681 93.0041 123.146 100.782 119.416C108.559 115.687 115.17 109.898 119.902 102.686Z" fill="#222831"/>
<path d="M94.6353 69.5297C94.5385 69.3081 94.403 69.1056 94.2351 68.9315L81.9851 56.6815C81.8111 56.5137 81.6085 56.3782 81.3869 56.2814C81.3257 56.2528 81.2604 56.2364 81.195 56.214C81.0242 56.1558 80.8463 56.1208 80.6662 56.1099C80.6234 56.1058 80.5846 56.0833 80.5417 56.0833H66.25C63.9981 56.0833 62.1667 57.9147 62.1667 60.1666V92.8333C62.1667 95.0853 63.9981 96.9166 66.25 96.9166H90.75C93.002 96.9166 94.8334 95.0853 94.8334 92.8333V70.375C94.8334 70.3321 94.8109 70.2933 94.8068 70.2484C94.7968 70.0682 94.7618 69.8902 94.7027 69.7196C94.6823 69.6543 94.6639 69.591 94.6353 69.5297ZM87.8631 68.3333H82.5834V63.0536L87.8631 68.3333ZM66.25 92.8333V60.1666H78.5V70.375C78.5 70.9165 78.7151 71.4358 79.098 71.8187C79.4809 72.2015 80.0002 72.4166 80.5417 72.4166H90.75L90.7541 92.8333H66.25Z" fill="#222831"/>
<path d="M70.3333 76.5H86.6666V80.5833H70.3333V76.5ZM70.3333 84.6666H86.6666V88.75H70.3333V84.6666ZM70.3333 68.3333H74.4166V72.4166H70.3333V68.3333Z" fill="#222831"/>
</g>
<defs>
<clipPath id="clip0_4_63">
<rect width="154" height="154" fill="white"/>
</clipPath>
</defs>
</svg>
